<?xml version="1.0" standalone="no"?>
<!DOCTYPE svg PUBLIC "-//W3C//DTD SVG 20010904//EN"
 "http://www.w3.org/TR/2001/REC-SVG-20010904/DTD/svg10.dtd">
<svg version="1.0" xmlns="http://www.w3.org/2000/svg"
 width="85.000000pt" height="85.000000pt" viewBox="0 0 85.000000 85.000000"
 preserveAspectRatio="xMidYMid meet">
<metadata>
Created by potrace 1.14, written by Peter Selinger 2001-2017
</metadata>
<g transform="translate(0.000000,85.000000) scale(0.100000,-0.100000)"
fill="#000000" stroke="none">
<path d="M715 777 c-6 -24 -10 -26 -23 -15 -12 10 -14 10 -8 1 8 -14 -55 -83
-75 -83 -7 0 -10 -3 -7 -6 8 -7 -42 -60 -53 -57 -5 2 -9 -2 -9 -8 0 -15 -26
-39 -34 -32 -6 6 -10 -12 -7 -30 1 -5 -3 -6 -8 -3 -12 8 -33 -18 -23 -29 4 -5
2 -5 -5 -1 -7 4 -19 -4 -28 -18 -17 -26 -45 -25 -45 1 0 10 -6 13 -17 9 -10
-4 -14 -4 -10 0 3 4 -3 15 -15 25 -11 11 -17 19 -12 19 5 0 -3 8 -16 17 -14
10 -29 17 -33 15 -5 -1 -6 2 -2 7 3 6 -4 15 -15 21 -11 6 -20 18 -20 26 0 8
-4 12 -10 9 -5 -3 -10 2 -10 11 0 10 -3 15 -6 11 -4 -3 -21 9 -39 28 -18 18
-36 31 -40 27 -3 -3 -3 1 0 10 7 19 -21 33 -32 15 -11 -18 -11 -47 1 -47 7 0
7 -3 1 -8 -13 -9 -15 -132 -3 -132 5 0 6 -5 3 -11 -10 -15 -11 -189 -2 -189 5
0 5 -6 0 -12 -4 -7 -6 -21 -5 -31 2 -10 -2 -25 -9 -33 -10 -12 -9 -13 7 -7 16
6 17 4 7 -8 -10 -12 -10 -18 0 -29 10 -10 9 -11 -2 -5 -11 6 -13 4 -8 -9 4
-10 7 -22 7 -28 0 -6 6 -8 14 -5 7 3 18 1 24 -5 7 -7 17 -6 33 3 18 9 24 9 27
0 3 -9 7 -9 18 -1 7 7 19 8 26 4 17 -11 48 -13 42 -3 -2 4 5 7 16 6 11 -1 20
-5 20 -10 0 -5 7 -4 15 3 8 6 20 8 27 4 17 -11 48 -13 42 -3 -2 4 5 7 16 6 11
-1 20 -5 20 -10 0 -5 7 -4 15 3 8 6 20 8 27 4 17 -11 48 -13 42 -3 -2 4 5 7
16 6 11 -1 20 -5 20 -10 0 -5 7 -4 15 3 11 9 19 10 28 1 10 -7 17 -7 24 0 8 8
13 8 17 0 5 -7 13 -7 28 2 17 10 22 9 26 -2 4 -11 6 -11 13 0 7 12 9 12 9 0 0
-11 3 -11 17 0 9 8 18 13 20 12 12 -10 18 3 19 42 0 24 -2 42 -6 40 -4 -2 -7
2 -7 10 0 8 3 12 6 10 3 -2 7 19 7 46 1 28 -3 46 -9 42 -5 -3 -6 2 0 13 11 23
11 34 -1 53 -6 9 -5 12 1 8 12 -7 10 74 -2 93 -5 8 -4 11 3 6 12 -7 11 32 -3
53 -5 8 -4 12 1 8 5 -3 10 17 10 44 1 26 -2 46 -6 44 -4 -2 -7 2 -7 10 0 8 3
15 7 15 3 0 6 14 5 30 0 24 -4 30 -22 30 -13 0 -23 -6 -23 -12 0 -9 -3 -8 -9
1 -8 12 -11 9 -16 -12z"/>
</g>
</svg>
